<mxfile host="app.diagrams.net" agent="Mozilla/5.0 (Windows NT 10.0; Win64; x64) AppleWebKit/537.36 (KHTML, like Gecko) Chrome/136.0.0.0 Safari/537.36" version="27.1.1">
  <diagram name="Страница — 1" id="ZKPx9HHbzmpxlqkvaJ4q">
    <mxGraphModel dx="1959" dy="884" grid="1" gridSize="10" guides="1" tooltips="1" connect="1" arrows="1" fold="1" page="1" pageScale="1" pageWidth="827" pageHeight="1169" math="0" shadow="0">
      <root>
        <mxCell id="0" />
        <mxCell id="1" parent="0" />
        <mxCell id="0DHK0KmIkTAzLAM8kkEF-31" value="" style="rounded=0;whiteSpace=wrap;html=1;" parent="1" vertex="1">
          <mxGeometry x="300" y="332" width="930" height="758" as="geometry" />
        </mxCell>
        <mxCell id="0DHK0KmIkTAzLAM8kkEF-14" value="Логотип" style="ellipse;whiteSpace=wrap;html=1;aspect=fixed;" parent="1" vertex="1">
          <mxGeometry x="300" y="333.75" width="70" height="70" as="geometry" />
        </mxCell>
        <mxCell id="0DHK0KmIkTAzLAM8kkEF-15" value="" style="rounded=0;whiteSpace=wrap;html=1;" parent="1" vertex="1">
          <mxGeometry x="440" y="353.75" width="700" height="50" as="geometry" />
        </mxCell>
        <mxCell id="0DHK0KmIkTAzLAM8kkEF-16" value="Главная" style="text;html=1;align=center;verticalAlign=middle;whiteSpace=wrap;rounded=0;" parent="1" vertex="1">
          <mxGeometry x="450" y="363.75" width="60" height="30" as="geometry" />
        </mxCell>
        <mxCell id="0DHK0KmIkTAzLAM8kkEF-17" value="Упражнения" style="text;html=1;align=center;verticalAlign=middle;whiteSpace=wrap;rounded=0;" parent="1" vertex="1">
          <mxGeometry x="540" y="363.75" width="60" height="30" as="geometry" />
        </mxCell>
        <mxCell id="0DHK0KmIkTAzLAM8kkEF-18" value="Журнал тренировок" style="text;html=1;align=center;verticalAlign=middle;whiteSpace=wrap;rounded=0;" parent="1" vertex="1">
          <mxGeometry x="640" y="363.75" width="130" height="30" as="geometry" />
        </mxCell>
        <mxCell id="0DHK0KmIkTAzLAM8kkEF-19" value="Весовой журнал" style="text;html=1;align=center;verticalAlign=middle;whiteSpace=wrap;rounded=0;" parent="1" vertex="1">
          <mxGeometry x="790" y="361.88" width="110" height="33.75" as="geometry" />
        </mxCell>
        <mxCell id="0DHK0KmIkTAzLAM8kkEF-21" value="Трекер питания" style="text;html=1;align=center;verticalAlign=middle;whiteSpace=wrap;rounded=0;" parent="1" vertex="1">
          <mxGeometry x="920" y="357.5" width="90" height="42.5" as="geometry" />
        </mxCell>
        <mxCell id="0DHK0KmIkTAzLAM8kkEF-22" value="Результаты" style="text;html=1;align=center;verticalAlign=middle;whiteSpace=wrap;rounded=0;" parent="1" vertex="1">
          <mxGeometry x="1050" y="363.76" width="60" height="30" as="geometry" />
        </mxCell>
        <mxCell id="0DHK0KmIkTAzLAM8kkEF-23" value="© 2025 Active Life, Inc. Все права защищены." style="rounded=0;whiteSpace=wrap;html=1;" parent="1" vertex="1">
          <mxGeometry x="440" y="1020" width="700" height="70" as="geometry" />
        </mxCell>
        <mxCell id="0DHK0KmIkTAzLAM8kkEF-28" value="Ваш вес" style="rounded=1;whiteSpace=wrap;html=1;" parent="1" vertex="1">
          <mxGeometry x="470" y="490" width="150" height="20" as="geometry" />
        </mxCell>
        <mxCell id="0DHK0KmIkTAzLAM8kkEF-29" value="Записать" style="rounded=1;whiteSpace=wrap;html=1;" parent="1" vertex="1">
          <mxGeometry x="670" y="485" width="100" height="30" as="geometry" />
        </mxCell>
        <mxCell id="0DHK0KmIkTAzLAM8kkEF-32" value="" style="rounded=0;whiteSpace=wrap;html=1;" parent="1" vertex="1">
          <mxGeometry x="470" y="610" width="440" height="345" as="geometry" />
        </mxCell>
        <mxCell id="0DHK0KmIkTAzLAM8kkEF-33" value="Дата" style="text;html=1;align=center;verticalAlign=middle;whiteSpace=wrap;rounded=0;" parent="1" vertex="1">
          <mxGeometry x="500" y="630" width="60" height="30" as="geometry" />
        </mxCell>
        <mxCell id="0DHK0KmIkTAzLAM8kkEF-34" value="Вес" style="text;html=1;align=center;verticalAlign=middle;whiteSpace=wrap;rounded=0;" parent="1" vertex="1">
          <mxGeometry x="745" y="630" width="60" height="30" as="geometry" />
        </mxCell>
      </root>
    </mxGraphModel>
  </diagram>
</mxfile>
